<?xml version="1.0" encoding="UTF-8" standalone="no"?>
<svg
   id="Layer_1"
   data-name="Layer 1"
   viewBox="0 0 348.01517 196.99"
   version="1.1"
   xml:space="preserve"
   width="348.01517"
   height="196.99001"
   xmlns="http://www.w3.org/2000/svg"
   xmlns:svg="http://www.w3.org/2000/svg"><defs
     id="defs4"><style
       id="style2">.cls-1{fill:#99425b;}.cls-2{fill:#fff;}.cls-3{fill:#e9551d;}.cls-4{fill:#ef7c10;}.cls-5{fill:#f6a307;}.cls-6{fill:#b91d1b;}.cls-7{fill:#020203;}</style></defs><path
     class="cls-3"
     d="M 132.43,25 A 67,67 0 0 1 144.27,62 62.44,62.44 0 0 0 127.81,43.48 72.41,72.41 0 0 1 136.37,79.81 32.55,32.55 0 0 0 122.56,60 c 4.3,10.75 8.43,23.54 2.07,33.22 a 93.11,93.11 0 0 0 -6,-15 81.23,81.23 0 0 1 -10.92,46 59.53,59.53 0 0 0 -8.2,-29.47 126.3,126.3 0 0 1 -5.71,38.43 101.78,101.78 0 0 0 -13.14,-33.15 133.18,133.18 0 0 1 -9.84,28.19 125.09,125.09 0 0 0 -9.87,-28 c -5.64,9.15 -4.66,20.73 -3.44,31.38 A 90.38,90.38 0 0 1 45.87,79.83 34.75,34.75 0 0 0 37.8,98 C 30.16,88.1 31.31,74.3 32.8,61.87 A 61.76,61.76 0 0 0 17.02,81.77 C 15.67,65 23.87,49.14 31.84,34.29 A 60.08,60.08 0 0 1 14.29,50.42 270.55,270.55 0 0 0 24.79,19 23.19,23.19 0 0 1 17.28,29.82 7.66,7.66 0 0 1 16.75,31.89 C 12.16,42.06 0.62,55.51 0,56.69 c 0,0 7.28,-0.82 12.33,-5.51 -7.81,14.92 5.05,42.72 11.21,49.74 -1.18,-3.18 -0.92,-7.67 1.84,-9.67 -1.35,29.05 22.88,46 22.88,46 0,0 -3.32,-6.56 -0.52,-10.25 1.57,8 35.9,19.14 35.9,35.14 0,-16.23 36.92,-28 40.76,-50.29 0.62,0 1.57,6.59 -0.33,9 17.58,-10.33 29.18,-43.12 27.9,-52.6 2.76,3 4.37,9.78 4.37,9.78 0,0 10.59,-24.5 -0.33,-45.12 C 151.88,25 147.94,21.5 144.5,19 c 1.11,5 3.64,9.58 6.13,14.07 A 26.36,26.36 0 0 0 132.43,25 Z"
     id="path10" /><path
     class="cls-4"
     d="M 78.56,22 C 40.72,21.08 26.2,9.63 26.2,0 c 0,17.83 -8.23,24 -8.92,29.83 A 23.19,23.19 0 0 0 24.79,19 270.55,270.55 0 0 1 14.29,50.38 60.08,60.08 0 0 0 31.84,34.29 C 23.87,49.14 15.67,65 17.02,81.77 A 61.35,61.35 0 0 1 32.79,61.9 c -1.48,12.43 -2.59,26.26 5,36.23 a 34.7,34.7 0 0 1 8.15,-18.2 90.45,90.45 0 0 0 11.61,51.84 c -1.18,-10.65 -2.2,-22.23 3.44,-31.38 a 124.08,124.08 0 0 1 9.87,28 133.07,133.07 0 0 0 9.84,-28.2 101.58,101.58 0 0 1 13.15,33.15 126.2,126.2 0 0 0 5.7,-38.43 59.88,59.88 0 0 1 8.2,29.48 81.17,81.17 0 0 0 10.92,-46 94.68,94.68 0 0 1 6,15 c 6.36,-9.7 2.23,-22.49 -2.06,-33.21 A 32.7,32.7 0 0 1 136.4,80 a 72.41,72.41 0 0 0 -8.56,-36.33 62.44,62.44 0 0 1 16.46,18.52 67.06,67.06 0 0 0 -11.83,-37 26.13,26.13 0 0 1 18.19,8.07 c -2.49,-4.49 -5,-9.08 -6.13,-14.07 -5.54,-3.93 -9.93,-5.44 -12.43,-19 C 132.07,9.63 116.43,22.91 78.56,22 Z"
     id="path12" /><path
     class="cls-5"
     d="m 57.94,28.22 c -6.69,5.81 -7.93,18.3 -6.65,27 a 21.76,21.76 0 0 1 6.25,-10.6 c -1.67,5 0.17,10.46 2.17,15.38 2.39,5.9 5.08,11.74 9,16.72 a 35.1,35.1 0 0 1 1.37,-20.53 c 0,2.46 1.32,4.73 2.5,6.89 a 119.6,119.6 0 0 1 11.8,31.58 c 5.34,-10.63 3.61,-23.38 7,-34.76 4.85,4.85 6.06,12.13 6.82,18.92 a 49.92,49.92 0 0 0 4.59,-28.53 29,29 0 0 1 7.9,12.71 46.24,46.24 0 0 0 -1,-23.38 c -1.48,-4.75 -4.07,-9.6 -8.63,-11.74 a 18.79,18.79 0 0 0 -5.54,-1.44 c -3.28,-0.46 -6.59,-0.72 -9.9,-1 A 64.1,64.1 0 0 0 73.39,25.34 21.75,21.75 0 0 0 62.14,29.7"
     id="path14" /><path
     class="cls-6"
     d="M 58.94,27.11 C 57.05,44 93.28,54.85 102.4,28.55 105.22,20.42 59.38,22.78 58.94,27.11 Z"
     id="path16" /><path
     class="cls-2"
     d="m 61.74,33.34 c 0,2.66 37.25,1.77 37.18,-0.66 0,-0.52 0.26,-6.13 0.3,-6.75 -10.46,0.56 -28.36,0.29 -37.51,3.08 v 4.33 z"
     id="path18" /><path
     class="cls-5"
     d="m 80.3,20.36 c 6.59,6.85 41.41,8.06 50.3,-2.53 -6.07,5.08 -14.14,4.56 -16.89,3.54 a 7.67,7.67 0 0 0 5.64,-5.9 C 104.17,30.78 99.71,4.52 80.5,18.55 64.63,7 54.2,23.37 42.1,17.7 l 5.15,3.67 c 0,0 -7.58,5 -16.89,-3.54 a 21.39,21.39 0 0 0 4.23,4.69 C 47.57,27 74.13,25.27 80.3,20.36 Z"
     id="path20" /><path
     class="cls-3"
     d="m 80.5,26.42 c 11.67,6.49 40.42,6.2 50.1,-8.56 v 0 c -8.89,10.56 -43.71,9.35 -50.3,2.5 -6.17,4.91 -32.73,6.64 -45.71,2.16 12.1,10.07 35.61,9.64 45.91,3.9 z"
     id="path22" /><path
     class="cls-3"
     d="m 84.46,156.66 c -6.75,3.77 -15.9,24.2 1.31,40.33 -1.31,-15.15 14.3,-23.81 -1.31,-40.33"
     id="path24" /><path
     class="cls-4"
     d="m 84.07,156.66 c -3.31,3.77 -6.72,24.2 1.74,40.33 -0.66,-15.15 5.9,-23.81 -1.74,-40.33"
     id="path26" /><path
     class="cls-7"
     d="m 64.53,153.41 c 1.34,-2.65 18.72,2.66 18.72,2.66 0,0 15.31,-6.1 18.1,-5.15 2.79,0.95 1.87,15.71 0,15.71 -1.87,0 -18.07,-8.27 -18.07,-8.27 0,0 -15.64,8.5 -17.18,8.27 C 64.56,166.4 63.74,155 64.53,153.41 Z"
     id="path28" /><g
     id="g7"
     transform="matrix(0.72207957,0,0,0.76886303,163.1628,22.418349)"><path
       d="m 84.380258,108.35161 c -9.556409,2.71207 -15.825994,7.46729 -19.95603,12.21879 3.955757,-3.46184 9.254573,-6.63891 16.402227,-8.66499 7.310808,-2.07206 13.547762,-2.05723 18.701222,-1.06273 v -4.02992 c -4.396274,-0.40195 -9.436267,-0.0816 -15.147419,1.53885 z M 63.987419,74.474785 28.496478,83.825026 c 0,0 0.646834,0.913665 1.844537,2.132875 l 30.091859,-7.929313 c 0,0 -0.426427,5.494602 -4.129516,10.410004 7.004745,-5.299557 7.684061,-13.963807 7.684061,-13.963807 z M 93.695643,157.8846 C 43.750467,171.33669 17.3261,113.45538 9.3258895,83.412689 5.6296968,69.545292 4.0161722,59.042587 3.5861115,52.264997 3.5399091,51.561208 3.5612675,50.967919 3.6110297,50.424317 1.020135,50.580797 -0.22028475,51.927564 0.03208571,55.819542 0.46214634,62.593424 2.075671,73.095387 5.7718637,86.967234 13.768515,117.00548 40.196441,174.88679 90.141839,161.43469 c 10.871291,-2.92862 19.038651,-8.26304 25.169561,-15.07252 -5.65108,5.10378 -12.72383,9.12331 -21.615757,11.52243 z M 103.08148,39.05096 v 3.554545 h 19.59042 c -0.40196,-1.258515 -0.80688,-2.392439 -1.20883,-3.554545 z"
       fill="#2d4552"
       id="path1" /><path
       d="m 127.05037,68.325341 c 8.81035,2.502198 13.46989,8.679082 15.93279,14.145502 l 9.82339,2.789943 c 0,0 -1.3401,-19.131357 -18.64486,-24.04676 -16.18865,-4.599476 -26.15072,8.995009 -27.36251,10.754111 4.70923,-3.355051 11.5862,-6.101981 20.25119,-3.642796 z m 78.19628,14.233753 c -16.20347,-4.620241 -26.16184,9.002425 -27.35583,10.737055 4.71294,-3.351344 11.5862,-6.099015 20.24748,-3.628706 8.79626,2.505906 13.4521,8.675373 15.92241,14.145497 l 9.83748,2.80033 c 0,0 -1.3616,-19.135065 -18.65154,-24.054176 z m -9.75961,50.442946 -81.71819,-22.84535 c 0,0 0.88474,4.48527 4.2791,10.29283 l 68.80302,19.23444 c 5.66443,-3.27718 8.63607,-6.68192 8.63607,-6.68192 z m -56.65543,49.17405 C 74.126734,164.82831 81.949255,82.385557 92.419329,43.318935 96.730318,27.219287 101.16219,15.252863 104.83762,7.2313679 102.64467,6.7799488 100.82846,7.9350832 99.033764,11.585074 95.131403,19.49985 90.141098,32.386837 85.311722,50.427284 74.844615,89.493164 67.022094,171.93295 131.72401,189.28073 c 30.4973,8.17033 54.25557,-4.24721 71.966,-23.74863 -16.81086,15.22603 -38.27384,23.76272 -64.8584,16.64399 z"
       fill="#2d4552"
       id="path2" /><path
       d="m 103.08148,138.56487 v -16.63658 l -46.223619,13.10725 c 0,0 3.415567,-19.84553 27.522397,-26.68393 7.310808,-2.07206 13.548504,-2.05797 18.701222,-1.06273 V 39.05096 h 23.14422 c -2.52,-7.786923 -4.95768,-13.782112 -7.00527,-17.947745 -3.38694,-6.894764 -6.85916,-2.324211 -14.74175,4.268717 C 98.926972,30.009972 84.895678,39.904555 63.781251,45.5942 42.666527,51.287553 25.596406,49.777632 18.474115,48.544332 8.3769974,46.802286 3.0956837,44.584867 3.5897454,52.264997 4.0197319,59.038879 5.6333307,69.541584 9.3295234,83.412689 17.3261,113.45167 43.754027,171.33298 93.699351,157.88089 106.74578,154.36565 115.95438,147.41749 122.33743,138.56116 H 103.08148 Z M 28.492993,83.825026 63.987419,74.474785 c 0,0 -1.034548,13.654555 -14.340768,17.162378 -13.309928,3.504116 -21.153658,-7.812137 -21.153658,-7.812137 z"
       fill="#e2574c"
       id="path3" /><path
       d="M 236.66429,39.840035 C 227.4379,41.45749 205.30301,43.472449 177.94792,36.140134 150.58542,28.812269 132.43076,15.996032 125.23787,9.9719198 115.04145,1.4315193 110.55619,-4.5037476 106.14211,4.473833 102.23975,12.392244 97.249446,25.27923 92.419329,43.319677 81.952963,82.385557 74.130442,164.82534 138.83161,182.17312 c 64.68783,17.33295 99.12605,-57.97772 109.59316,-97.047308 4.83012,-18.036738 6.94816,-31.695001 7.53107,-40.50164 0.66448,-9.976161 -6.18801,-7.080167 -19.29155,-4.784137 z M 106.66791,72.160957 c 0,0 10.19642,-15.858625 27.49007,-10.943223 17.30477,4.915403 18.64486,24.04676 18.64486,24.04676 z m 42.21477,71.162833 c -30.41869,-8.91046 -35.11013,-33.1671 -35.11013,-33.1671 l 81.71449,22.84609 c 0,-0.004 -16.49418,19.12023 -46.60436,10.32101 z m 28.89097,-49.849654 c 0,0 10.18232,-15.847501 27.473,-10.918008 17.28994,4.922819 18.65154,24.054172 18.65154,24.054172 z"
       fill="#2ead33"
       id="path4" /><path
       d="m 86.928436,126.50923 -30.070575,8.5226 c 0,0 3.266503,-18.60852 25.418445,-25.98311 L 65.248901,45.147008 63.777543,45.5942 C 42.662968,51.288295 25.592846,49.777632 18.470555,48.544332 8.3735118,46.803027 3.0921981,44.584867 3.5861857,52.265739 4.0162463,59.03962 5.6297709,69.541584 9.3259637,83.413431 17.322614,113.45167 43.750541,171.33298 93.695643,157.88089 L 95.167,157.41886 Z M 28.492993,83.825767 63.987419,74.474785 c 0,0 -1.034548,13.654555 -14.340768,17.162378 -13.309854,3.504116 -21.153658,-7.811396 -21.153658,-7.811396 z"
       fill="#d65348"
       id="path5" /><path
       d="m 150.25466,143.65752 -1.37569,-0.33447 c -30.41869,-8.90972 -35.11012,-33.16636 -35.11012,-33.16636 l 42.13689,11.77828 22.30842,-85.723641 -0.26994,-0.07119 C 150.58171,28.812269 132.4278,15.996032 125.23416,9.9719198 115.03775,1.4315193 110.55248,-4.5037476 106.1384,4.473833 102.23975,12.392244 97.249446,25.27923 92.419329,43.319677 81.952963,82.385557 74.130442,164.82534 138.83161,182.17238 l 1.32601,0.29887 z M 106.66791,72.160957 c 0,0 10.19642,-15.858625 27.49007,-10.943223 17.30477,4.915403 18.64486,24.04676 18.64486,24.04676 z"
       fill="#1d8d22"
       id="path6" /><path
       d="m 88.460606,126.07242 -8.064286,2.28861 c 1.9052,10.74002 5.263218,21.04694 10.533853,30.15245 0.917373,-0.20246 1.827331,-0.37674 2.761762,-0.63259 2.448802,-0.66078 4.719617,-1.47878 6.905885,-2.37094 -5.889136,-8.73915 -9.784822,-18.8043 -12.137214,-29.43753 z M 85.311722,50.428025 c -4.144126,15.467054 -7.851443,37.729496 -6.830985,60.059425 1.82659,-0.79278 3.756263,-1.53143 5.899521,-2.13955 l 1.492864,-0.33373 c -1.819915,-23.851711 2.114335,-48.157293 6.546207,-64.694493 1.123542,-4.183432 2.25005,-8.074668 3.37285,-11.703374 -1.808791,1.150981 -3.756263,2.330885 -5.974424,3.546387 -1.495831,4.617274 -3.006494,9.663942 -4.506033,15.265335 z"
       fill="#c04b41"
       id="path7" /></g></svg>
